<svg width="1326" height="1741" viewBox="0 0 1326 1741" fill="none" xmlns="http://www.w3.org/2000/svg">
<rect width="1326" height="1741" fill="#012150"/>
<line y1="-4.5" x2="541.982" y2="-4.5" transform="matrix(0.749234 -0.662306 0.645283 0.763944 151.641 427.958)" stroke="#023378" stroke-width="9"/>
<line y1="-5" x2="163.07" y2="-5" transform="matrix(-0.0116363 0.999932 -0.999926 -0.0121777 146.898 421.324)" stroke="#023378" stroke-width="10"/>
<line y1="-4.5" x2="587.95" y2="-4.5" transform="matrix(0.910117 0.414351 -0.398916 0.916987 547.273 71.9116)" stroke="#023378" stroke-width="9"/>
<line y1="-4.5" x2="245.547" y2="-4.5" transform="matrix(0.425027 0.905181 -0.897494 0.441027 1077.63 310.676)" stroke="#023378" stroke-width="9"/>
<path d="M148.748 582.327L203.826 664.456L309.142 857.603L532.049 1318.03" stroke="#023378" stroke-width="9"/>
<line y1="-4.5" x2="143.192" y2="-4.5" transform="matrix(-0.371045 0.928615 -0.922587 -0.38579 1182 525.176)" stroke="#023378" stroke-width="9"/>
<line y1="-4.5" x2="728.34" y2="-4.5" transform="matrix(-0.414239 0.910168 -0.902821 -0.430016 1130.77 653.294)" stroke="#023378" stroke-width="9"/>
<ellipse cx="684.374" cy="1267.68" rx="161.764" ry="154.324" fill="#023378"/>
<path d="M145.107 420.258L339.839 478.426L112.756 620.901L145.107 420.258Z" fill="#023378"/>
<path d="M288.269 695.709L112.079 619.499L314.669 505.568L288.269 695.709Z" fill="#023378"/>
<ellipse cx="140.956" cy="603.128" rx="8" ry="20.5" transform="rotate(50.9483 140.956 603.128)" fill="#023378"/>
<path d="M1082.5 304L1205.91 436.75H959.091L1082.5 304Z" fill="#023378"/>
<path d="M1158.54 606.6L1029.25 522.503L1217.91 464.248L1158.54 606.6Z" fill="#023378"/>
<path d="M1125.12 406.57L1207.27 435.806L1101.41 490.487L1125.12 406.57Z" fill="#023378"/>
<rect x="1135.01" y="437.205" width="52.858" height="64.5387" transform="rotate(-27.2535 1135.01 437.205)" fill="#023378"/>
<rect x="1145" y="435.943" width="42" height="62" transform="rotate(-47.454 1145 435.943)" fill="#023378"/>
<path d="M1219.31 446.774L1214.1 469.124L1193.64 464.351L1198.86 442L1219.31 446.774Z" fill="#023378"/>
<ellipse cx="666" cy="673.5" rx="314" ry="510.5" fill="#023378"/>
<rect x="145" y="427.619" width="514" height="419" transform="rotate(-41.3562 145 427.619)" fill="#023378"/>
<rect x="551.938" y="62" width="575.562" height="451" transform="rotate(24.0692 551.938 62)" fill="#023378"/>
<rect x="152" y="436" width="150" height="148" fill="#023378"/>
<rect x="199" y="632.636" width="130" height="730" transform="rotate(-26.3182 199 632.636)" fill="#023378"/>
<rect x="233.305" y="702.115" width="143" height="182" transform="rotate(-124.649 233.305 702.115)" fill="#023378"/>
<rect x="192.055" y="644.658" width="77" height="173" transform="rotate(-28.99 192.055 644.658)" fill="#023378"/>
<rect x="1060.72" y="503" width="124" height="803.739" transform="rotate(24.063 1060.72 503)" fill="#023378"/>
<ellipse cx="1026.5" cy="519" rx="102.5" ry="201" fill="#023378"/>
<rect x="952" y="370.099" width="139" height="249.241" transform="rotate(-25.1616 952 370.099)" fill="#023378"/>
<rect x="1069.09" y="565" width="94" height="258" transform="rotate(23.3082 1069.09 565)" fill="#023378"/>
<rect x="506" y="119.144" width="67" height="69" transform="rotate(-48.4532 506 119.144)" fill="#023378"/>
<rect x="1058" y="307.691" width="22" height="117.281" transform="rotate(-26.1357 1058 307.691)" fill="#023378"/>
<rect width="11.7669" height="107" transform="matrix(-0.912908 0.408165 0.408165 0.912908 492.742 1205)" fill="#023378"/>
<path d="M553.99 1319.72C555.991 1323.37 557.437 1327.22 558.167 1330.86C558.897 1334.5 558.884 1337.78 558.128 1340.34C557.372 1342.9 555.903 1344.64 553.885 1345.36C551.866 1346.09 549.377 1345.77 546.692 1344.44C544.008 1343.11 541.234 1340.83 538.677 1337.84C536.12 1334.86 533.882 1331.29 532.209 1327.53C530.536 1323.77 529.495 1319.96 529.201 1316.54C528.907 1313.11 529.371 1310.2 530.542 1308.13L541.027 1321.56C540.774 1322.01 540.674 1322.64 540.737 1323.38C540.801 1324.12 541.025 1324.94 541.386 1325.75C541.747 1326.56 542.23 1327.33 542.781 1327.97C543.333 1328.62 543.931 1329.11 544.51 1329.39C545.089 1329.68 545.626 1329.75 546.061 1329.59C546.497 1329.44 546.814 1329.06 546.977 1328.51C547.14 1327.96 547.142 1327.25 546.985 1326.47C546.827 1325.68 546.516 1324.85 546.084 1324.06L553.99 1319.72Z" fill="#023378"/>
<path d="M529.983 1315.62L554.5 1352L552.497 1346.5" stroke="#023378" stroke-width="9"/>
<rect x="1142.39" y="514" width="46" height="38" transform="rotate(23.8965 1142.39 514)" fill="#023378"/>
<rect x="1078.37" y="298" width="25" height="39" transform="rotate(56.0853 1078.37 298)" fill="#023378"/>
<path d="M109.506 553.5L100.5 573L109.506 621.5L159.469 666.818" stroke="#012250" stroke-width="14"/>
<path d="M526.003 75.5L558.501 58.4997L599.996 58.4997" stroke="#012150" stroke-width="5"/>
<line x1="550.11" y1="39.2664" x2="1076.55" y2="280.019" stroke="#021F49" stroke-width="39"/>
<line x1="1227.76" y1="449.323" x2="1067.76" y2="278.323" stroke="#021F49" stroke-width="39"/>
<line x1="96.8922" y1="605.826" x2="199.72" y2="675.072" stroke="#021F49" stroke-width="39"/>
<line x1="193.383" y1="667.165" x2="562.383" y2="1393.16" stroke="#021F49" stroke-width="39"/>
<line x1="1224.92" y1="427.665" x2="838.931" y2="1330.66" stroke="#021F49" stroke-width="39"/>
<path d="M843.502 1325.5L766.999 1415L700.499 1443L616.003 1434L555 1384.5" stroke="#021F49" stroke-width="39"/>
<path d="M485.868 127.9L555.463 60.8909L627.868 100.9" stroke="#023378" stroke-width="6"/>
<line x1="564.632" y1="32.8553" x2="123.632" y2="407.855" stroke="#021F49" stroke-width="39"/>
<ellipse cx="582.694" cy="1394.36" rx="4.5" ry="39" transform="rotate(-32.3207 582.694 1394.36)" fill="#021F49"/>
<ellipse cx="605.414" cy="1417.73" rx="15" ry="47.5" transform="rotate(-54.6239 605.414 1417.73)" fill="#021F49"/>
<ellipse cx="696.993" cy="1435.05" rx="14.5" ry="43.5" transform="rotate(-92.0481 696.993 1435.05)" fill="#021F49"/>
<ellipse cx="780.998" cy="1391.49" rx="11.1512" ry="50.2156" transform="rotate(-123.588 780.998 1391.49)" fill="#021F49"/>
<line x1="130.385" y1="395.116" x2="105.385" y2="624.116" stroke="#021F49" stroke-width="39"/>
<path d="M847.195 807.541C801.87 751.089 741.604 720 677.504 720C613.403 720 553.138 751.089 507.813 807.541C462.486 863.99 437.523 939.045 437.523 1018.88C437.523 1022.38 438.726 1025.71 440.829 1028.03L616.227 1221.73C613.192 1231.3 611.61 1241.58 611.61 1251.93C611.61 1297.19 641.17 1334 677.504 1334C713.837 1334 743.397 1297.19 743.397 1251.93C743.397 1241.58 741.815 1231.3 738.78 1221.73L914.178 1028.03C916.281 1025.71 917.484 1022.38 917.484 1018.88C917.484 939.045 892.521 863.99 847.195 807.541ZM720.279 1209.46C716.859 1213.24 715.983 1219.46 718.168 1224.46C721.824 1232.83 723.755 1242.33 723.755 1251.93C723.755 1283.7 703.007 1309.54 677.504 1309.54C652.001 1309.54 631.252 1283.7 631.252 1251.93C631.252 1242.33 633.185 1232.83 636.84 1224.46C639.024 1219.46 638.149 1213.24 634.728 1209.46L457.209 1013.42C459.546 864.614 557.469 744.462 677.504 744.462C797.539 744.462 895.462 864.614 897.8 1013.42L720.279 1209.46Z" fill="#021F49"/>
<path d="M853.751 1008.66L684.002 821.985C680.289 817.901 674.714 817.901 671.001 821.985L501.25 1008.66C499.138 1010.99 497.93 1014.32 497.93 1017.83C497.93 1021.34 499.141 1024.68 501.253 1027L634.308 1173.2C636.102 1175.17 638.412 1176.26 640.805 1176.26H714.197C716.591 1176.26 718.9 1175.17 720.694 1173.2L853.749 1027C855.861 1024.68 857.072 1021.34 857.072 1017.83C857.072 1014.33 855.863 1010.99 853.751 1008.66ZM677.501 847.47L692.779 864.272C688.147 867.48 682.889 869.22 677.501 869.22C672.113 869.22 666.855 867.481 662.223 864.272L677.501 847.47ZM538.096 1034.86L522.591 1017.83L537.762 1001.14C539.875 1006.47 540.994 1012.36 540.994 1018.44C540.993 1024.17 539.992 1029.77 538.096 1034.86ZM801.799 1051.46L710.484 1151.8H644.518L553.203 1051.46C558.035 1041.58 560.635 1030.2 560.635 1018.44C560.635 1006.32 557.895 994.664 552.801 984.604L646.978 881.035C655.736 889.157 666.444 893.681 677.501 893.681C688.558 893.681 699.267 889.157 708.023 881.035L802.2 984.604C797.108 994.664 794.367 1006.32 794.367 1018.44C794.368 1030.2 796.967 1041.58 801.799 1051.46ZM816.906 1034.86C815.012 1029.76 814.009 1024.17 814.009 1018.44C814.009 1012.36 815.128 1006.47 817.242 1001.14L832.413 1017.83L816.906 1034.86Z" fill="#021F49"/>
<ellipse cx="677.5" cy="1026.86" rx="40.5" ry="50.8623" fill="#021F49"/>
</svg>
