 <svg id="field"  width="100" height="150" viewBox="0 0 63 88" fill="none" xmlns="http://www.w3.org/2000/svg">
    <path id="out-1" d="M38.5508 80.5C38.5508 84.3581 35.3679 87.5 31.4237 87.5C27.4796 87.5 24.2966 84.3581 24.2966 80.5C24.2966 76.6419 27.4796 73.5 31.4237 73.5C35.3679 73.5 38.5508 76.6419 38.5508 80.5Z" fill="white" stroke="#006C54"/>
    <path id="out-2" d="M55.5 80.5C55.5 84.3581 52.317 87.5 48.3729 87.5C44.4287 87.5 41.2458 84.3581 41.2458 80.5C41.2458 76.6419 44.4287 73.5 48.3729 73.5C52.317 73.5 55.5 76.6419 55.5 80.5Z" fill="white" stroke="#006C54"/>
    <path id="out-3" d="M20.7542 80.5C20.7542 84.3581 17.5713 87.5 13.6271 87.5C9.68296 87.5 6.5 84.3581 6.5 80.5C6.5 76.6419 9.68296 73.5 13.6271 73.5C17.5713 73.5 20.7542 76.6419 20.7542 80.5Z" fill="white" stroke="#006C54"/>
    <rect id="third-base" x="-0.010904" y="0.746709" width="14.49" height="14.49" transform="matrix(0.654087 0.75642 -0.675894 0.736998 31.9705 0.204634)" fill="white" stroke="#006C54"/>
    <rect id="second-base" x="-0.010904" y="0.746709" width="14.49" height="14.49" transform="matrix(0.654087 0.75642 -0.675894 0.736998 52.9705 23.2046)" fill="white" stroke="#006C54"/>
    <rect id="first-base" x="-0.010904" y="0.746709" width="14.49" height="14.49" transform="matrix(0.654087 0.75642 -0.675894 0.736998 10.9705 23.2046)" fill="white" stroke="#006C54"/>
    <line y1="-0.5" x2="12.0008" y2="-0.5" transform="matrix(0.99993 -0.0118556 0.0131613 0.999913 25 56.2847)" stroke="#006C54"/>
    <line x1="25.5" y1="56.1423" x2="25.5" y2="61.1253" stroke="#006C54"/>
    <line x1="36.5" y1="56" x2="36.5" y2="60.98" stroke="#006C54"/>
    <line y1="-0.5" x2="6.83575" y2="-0.5" transform="matrix(0.877795 0.479037 -0.518165 0.85528 25 61.1254)" stroke="#006C54"/>
    <line y1="-0.5" x2="6.82991" y2="-0.5" transform="matrix(0.868676 -0.495381 0.534905 0.844912 31.0004 64.3665)" stroke="#006C54"/>
</svg>