<svg width="58" height="79" viewBox="0 0 58 79" fill="none" xmlns="http://www.w3.org/2000/svg">
<path d="M19.5 61.5C19.5 64.7795 16.6254 67.5 13 67.5C9.37461 67.5 6.5 64.7795 6.5 61.5C6.5 58.2205 9.37461 55.5 13 55.5C16.6254 55.5 19.5 58.2205 19.5 61.5Z" fill="#D9D9D9" stroke="#D7827E"/>
<path d="M36.5 61.5C36.5 64.7795 33.6254 67.5 30 67.5C26.3746 67.5 23.5 64.7795 23.5 61.5C23.5 58.2205 26.3746 55.5 30 55.5C33.6254 55.5 36.5 58.2205 36.5 61.5Z" fill="#D9D9D9" stroke="#D7827E"/>
<path d="M53.5 61.5C53.5 64.7795 50.6254 67.5 47 67.5C43.3746 67.5 40.5 64.7795 40.5 61.5C40.5 58.2205 43.3746 55.5 47 55.5C50.6254 55.5 53.5 58.2205 53.5 61.5Z" fill="#D9D9D9" stroke="#D7827E"/>
<rect x="17.6066" y="29.7071" width="14" height="14" rx="0.5" transform="rotate(45 17.6066 29.7071)" fill="#FFDDDD" stroke="#B9A2A2"/>
<rect x="29.364" y="17.7071" width="14" height="14" rx="0.5" transform="rotate(45 29.364 17.7071)" fill="#FFDDDD" stroke="#B9A2A2"/>
<rect x="41.6066" y="29.7071" width="14" height="14" rx="0.5" transform="rotate(45 41.6066 29.7071)" fill="#FFDDDD" stroke="#B9A2A2"/>
</svg>
