<svg id="svg-1" width="370" height="400" viewBox=" 0 0 370 400">
                            <g transform="scale(0.65) translate(100,175)">
                            <rect width="500" height="500" fill="none" stroke="none"> </rect>
                            <g>
                            <defs>
                            <style id="overall-color">.e{fill:#B9A2A2;stroke:#d6d6d6;}.e,.f{stroke-miterlimit:10;}.f{fill:#B9A2A2;stroke:#bababa;}</style>
                            </defs>
                            <g id="a"/>
                            <g id="b">
                            <g id="c">
                            <g id="d">
                            <path class="f" d="M146.94,96.6c23.31,13.83,19.38,9.82,19.38,9.82,0,0,2.54-.65,1.58,1.98-.99,2.7-1.91,4.41-3.22,5.85-.96,1.05-2.31-1.11-2.31-2.3s-17.4-10.71-17.4-10.71"/>
                            <path class="e" d="M163.54,107.7c.79-3.56-5.93-7.9-11.85-11.46-1.97-1.18-3.8-1.23-5.38-.76l-9.64-5.56v-5.93c-.4-18.18-21.73-17.39-25.69-16.99-3.91,.39-28.75,8.15-20.4,28.64-11.95,2.93-27.14,10.42-34.13,14.83-7.51,4.74-9.09,30.43-9.88,52.16-.79,21.73-8.3,45.05-9.09,47.02-.79,1.98,.4,6.32,1.58,8.3s-1.19,3.56-1.19,3.56c0,0-7.9,1.98-13.44,18.57-5.53,16.6-.57,29.5,1.98,33.98,2.12,3.73,12.19,17.34,16.2,22.13,1.3,1.55,17.78,30.03,20.15,35.17s1.19,17.39,.79,17.78-3.52,3.97-6.33,8.52c-2.82,4.58-8.69,18.74-14.22,32.57s-15.02,51.77-15.02,51.77c0,0-6.72,23.31-3.56,28.85,3.16,5.53,23.71,3.16,31.61,2.37s20.15,4.35,29.24,3.56,16.2-2.77,17.78-9.09-18.33-8.4-28.85-16.11c-6.86-5.03-11.87-7.79-13.84-10.16-1.98-2.37,2.1-7.88,4.38-10.69,1.25-1.53,4.32-8.09,5.12-9.27,.79-1.19,18.97-45.05,19.76-46.63,.22-.43,1.43-2.47,3.14-5.41-3.56,21.65-9.46,32.68-9.46,32.68,0,0-6.72,13.83-2.37,19.36s15.41,2.77,24.5,2.77,16.99,3.16,23.31,1.98,15.02-6.72,15.81-9.88-8.96-5.24-13.44-6.32c-6.27-1.52-7.34,.87-16.43-10.98s-.18-38.72-.18-38.72c0,0,7.47-18.94,8.23-27.16,.68-7.25-4.27-23.12-10.6-46.82s-15.41-28.06-16.99-30.82-.79-10.67-.79-10.67c0,0,3.16,1.58,5.93,1.98s5.53-4.74,11.46-17.39c5.93-12.65,8.3-35.56,8.69-38.73,.4-3.16,4.35-13.04,4.35-13.04,0,0,17.78,4.74,21.73,5.14s11.85,1.98,14.23-1.98c2.37-3.95,2.37-16.2,2.37-24.1s-6.32-28.06-6.72-30.03,1.19-5.93,1.98-7.11c.79-1.19,4.35-8.3,5.14-11.85Zm-16.2,28.06c-.4,5.14-3.56,16.2-3.56,16.2,0,0-8.69-4.74-15.81-10.27-7.11-5.53-16.99-4.74-16.99-4.74l.79-3.16c.79-3.16,6.72-6.72,13.83-6.72s6.72-9.09,6.72-9.09c0,0,3.95-11.46,4.35-11.85,.27-.27,1.81-3.62,2.77-5.76,.46-1.01,1.37-.87,1.37-.87,.51,.03,.39-.85,.82-.85-.4,.45-.62,.76-.62,.76,0,0-.79,1.19-1.58,3.16s.4,9.48,.4,12.65,3.16,5.93,5.14,7.51c1.98,1.58,2.77,7.9,2.37,13.04Z"/>
                            <path class="e" d="M139.48,100.6c.46-1.01,.79-1.75,.79-1.75,.51,.03,.97,.04,1.41,.03"/>
                            <path class="e" d="M92.78,369.4c4.58-7.84,12-22.09,14.67-28.86,1.82-4.61-1.98-19.76-1.98-19.76,0,0-6.72-36.75-7.51-37.14"/>
                            <path class="f" d="M144.1,101.73s-34.4-21.36-34.76-21.3c0,0-40.7-24.5-48.21-28.06C53.62,48.82,9.59,19.08,1.86,14.44c-3.95-2.37,1.98-9.88,1.98-9.88C8.37-.06,8.97-.57,12.92,2.19c2.07,1.45,42.68,26.48,59.67,39.52s41.72,35.8,63.49,48.72"/>
                            <path class="e" d="M59.34,117.54c.09,.26,3.33,14.72,21.29,17.52,0,0,5.78,2.28,8.5-3.07s10.86-11.74,18.31-14.81c7.45-3.07,21.46-9.9,22.95-10.16s8.06-2.54,9.99-3.94c1.93-1.4,9.55-7.1,7.01-9.46s-14.02-11.39-17.17-11.04-6.31,1.58-8.23,4.03c-1.93,2.45-2.63,5.96-3.68,6.48s-2.28,.88-8.76,1.75-20.28,1.14-20.28,1.14c.21-.18-19.86,6.44-33.92,15.37"/>
                            </g>
                            </g>
                            </g>
                            <defs>
                            <style id="bat-color">.e{fill:#B9A2A2;stroke:#d6d6d6;}.e,.f{stroke-miterlimit:10;}.f{fill:#B9A2A2;stroke:#bababa;}</style>
                            </defs>
                            <g id="a"/>
                            <g id="b" transform="translate(340, 0)">
                            <g id="c">
                            <g id="d">
                            <path class="f" d="M21.68,96.6C-1.64,110.43,2.3,106.42,2.3,106.42c0,0-2.54-.65-1.58,1.98,.99,2.7,1.91,4.41,3.22,5.85,.96,1.05,2.31-1.11,2.31-2.3s17.4-10.71,17.4-10.71"> </path>
                            <path class="e" d="M10.22,119.55c.79,1.19,2.37,5.14,1.98,7.11s-6.72,22.13-6.72,30.03c0,7.9,0,20.15,2.37,24.1s10.27,2.37,14.23,1.98,21.73-5.14,21.73-5.14c0,0,3.95,9.88,4.35,13.04,.4,3.16,2.77,26.08,8.69,38.73,5.93,12.65,8.69,17.78,11.46,17.39s5.93-1.98,5.93-1.98c0,0,.79,7.9-.79,10.67s-10.67,7.11-16.99,30.82c-6.32,23.71-11.28,39.57-10.6,46.82,.77,8.21,8.23,27.16,8.23,27.16,0,0,8.91,26.87-.18,38.72s-10.16,9.46-16.43,10.98c-4.48,1.09-14.23,3.16-13.44,6.32,.79,3.16,9.48,8.69,15.81,9.88s14.23-1.98,23.31-1.98,20.15,2.77,24.5-2.77c4.35-5.53-2.37-19.36-2.37-19.36,0,0-5.9-11.02-9.46-32.68,1.71,2.94,2.93,4.98,3.14,5.41,.79,1.58,18.97,45.44,19.76,46.63s3.87,7.74,5.12,9.27c2.28,2.8,6.36,8.32,4.38,10.69s-6.98,5.13-13.84,10.16c-10.51,7.71-30.43,9.79-28.85,16.11,1.58,6.32,8.69,8.3,17.78,9.09,9.09,.79,21.34-4.35,29.24-3.56s28.45,3.16,31.61-2.37c3.16-5.53-3.56-28.85-3.56-28.85,0,0-9.48-37.94-15.02-51.77-5.53-13.83-11.4-28-14.22-32.57-2.8-4.56-5.93-8.13-6.33-8.52s-1.58-12.65,.79-17.78,18.85-33.62,20.15-35.17c4.01-4.79,14.08-18.4,16.2-22.13,2.55-4.48,7.51-17.39,1.98-33.98-5.53-16.6-13.44-18.57-13.44-18.57,0,0-2.37-1.58-1.19-3.56,1.19-1.98,2.37-6.32,1.58-8.3s-8.3-25.29-9.09-47.02-2.37-47.42-9.88-52.16c-6.99-4.41-22.18-11.9-34.13-14.83,8.34-20.49-16.49-28.24-20.4-28.64-3.95-.4-25.29-1.19-25.69,16.99v5.93l-9.64,5.56c-1.58-.46-3.41-.42-5.38,.76-5.93,3.56-12.65,7.9-11.85,11.46s4.35,10.67,5.14,11.85Zm13.44,3.16c1.98-1.58,5.14-4.35,5.14-7.51,0-3.16,1.19-10.67,.4-12.65-.79-1.98-1.58-3.16-1.58-3.16,0,0-.22-.31-.62-.76,.43,0,.31,.88,.82,.85,0,0,.92-.15,1.37,.87,.96,2.13,2.5,5.49,2.77,5.76,.4,.4,4.35,11.85,4.35,11.85,0,0-.4,9.09,6.72,9.09s13.04,3.56,13.83,6.72l.79,3.16s-9.88-.79-16.99,4.74c-7.11,5.53-15.81,10.27-15.81,10.27,0,0-3.16-11.06-3.56-16.2-.4-5.14,.4-11.46,2.37-13.04Z"> </path>
                            <path class="e" d="M29.14,100.6c-.46-1.01-.79-1.75-.79-1.75-.51,.03-.97,.04-1.41,.03"> </path>
                            <path class="e" d="M75.84,369.4c-4.58-7.84-12-22.09-14.67-28.86-1.82-4.61,1.98-19.76,1.98-19.76,0,0,6.72-36.75,7.51-37.14"> </path>
                            <path class="f" d="M24.52,101.73s34.4-21.36,34.76-21.3c0,0,40.7-24.5,48.21-28.06,7.51-3.56,51.55-33.3,59.27-37.94,3.95-2.37-1.98-9.88-1.98-9.88-4.54-4.62-5.14-5.14-9.09-2.37-2.07,1.45-42.68,26.48-59.67,39.52-16.99,13.04-41.72,35.8-63.49,48.72"> </path>
                            <path class="e" d="M109.28,117.54c-.09,.26-3.33,14.72-21.29,17.52,0,0-5.78,2.28-8.5-3.07s-10.86-11.74-18.31-14.81-21.46-9.9-22.95-10.16-8.06-2.54-9.99-3.94c-1.93-1.4-9.55-7.1-7.01-9.46s14.02-11.39,17.17-11.04,6.31,1.58,8.23,4.03c1.93,2.45,2.63,5.96,3.68,6.48s2.28,.88,8.76,1.75c6.48,.88,20.28,1.14,20.28,1.14-.21-.18,19.86,6.44,33.92,15.37"> </path>
                            </g>
                            </g>
                            </g>
                            <defs>
                            <style id="overall-color">.e{fill:#e5cbba;stroke:#9893a5;stroke-miterlimit:10;}</style>
                            </defs>
                            <g id="a"> </g>
                            <g id="b" transform="translate(190, 400) scale(1.13, 0.954)">
                            <g id="c">
                            <path id="d" class="e" d="M.5,33.51s52.15,17.56,52.15,17.56l53.21-17.56L91.81,.85,13.85,.5,.5,33.51Z"> </path>
                            </g>
                            </g>
                            <g id="strikeZone">
                            <rect class="strike-zone" x="205.729375" width="88.54124999999999" y="178.57142857142856" height="142.85714285714283" fill-opacity="0.001" stroke-opacity="1" style="fill: none; stroke: rgb(0, 0, 0);"> </rect>
                            </g>
                            </g>
                            <g> </g>
                            </g>
                        </svg>
